<svg preserveAspectRatio="none" width="100%" height="100%" overflow="visible" style="display: block;" viewBox="0 0 16.2381 16.2381" fill="none" xmlns="http://www.w3.org/2000/svg">
<g id="SVG">
<path id="Vector" d="M6.08356 8.11779L7.43673 9.47096L10.1431 6.76462M14.2026 8.11779C14.2026 8.91745 14.0451 9.70927 13.7391 10.4481C13.4331 11.1868 12.9845 11.8581 12.4191 12.4236C11.8537 12.989 11.1824 13.4375 10.4436 13.7436C9.7048 14.0496 8.91298 14.2071 8.11332 14.2071C7.31366 14.2071 6.52184 14.0496 5.78305 13.7436C5.04426 13.4375 4.37299 12.989 3.80754 12.4236C3.2421 11.8581 2.79357 11.1868 2.48755 10.4481C2.18154 9.70927 2.02403 8.91745 2.02403 8.11779C2.02403 6.50281 2.66558 4.95398 3.80754 3.81201C4.94951 2.67005 6.49834 2.0285 8.11332 2.0285C9.7283 2.0285 11.2771 2.67005 12.4191 3.81201C13.5611 4.95398 14.2026 6.50281 14.2026 8.11779Z" stroke="var(--stroke-0, #16A34A)" stroke-width="1.35318" stroke-linecap="round" stroke-linejoin="round"/>
</g>
</svg>
