<svg preserveAspectRatio="none" width="100%" height="100%" overflow="visible" style="display: block;" viewBox="0 0 16.4385 16.4385" fill="none" xmlns="http://www.w3.org/2000/svg">
<g id="SVG">
<path id="Vector" d="M6.16613 8.21932L7.53601 9.5892L10.2758 6.84944M14.3854 8.21932C14.3854 9.02885 14.226 9.83045 13.9162 10.5784C13.6064 11.3263 13.1523 12.0058 12.5799 12.5782C12.0074 13.1507 11.3279 13.6047 10.58 13.9145C9.83207 14.2243 9.03047 14.3838 8.22095 14.3838C7.41142 14.3838 6.60982 14.2243 5.86191 13.9145C5.11401 13.6047 4.43444 13.1507 3.86202 12.5782C3.2896 12.0058 2.83553 11.3263 2.52573 10.5784C2.21594 9.83045 2.05649 9.02885 2.05649 8.21932C2.05649 6.58441 2.70596 5.01645 3.86202 3.86039C5.01808 2.70434 6.58603 2.05487 8.22095 2.05487C9.85586 2.05487 11.4238 2.70434 12.5799 3.86039C13.7359 5.01645 14.3854 6.58441 14.3854 8.21932Z" stroke="var(--stroke-0, #16A34A)" stroke-width="1.36988" stroke-linecap="round" stroke-linejoin="round"/>
</g>
</svg>
