<svg preserveAspectRatio="none" width="100%" height="100%" overflow="visible" style="display: block;" viewBox="0 0 16.4037 16.4037" fill="none" xmlns="http://www.w3.org/2000/svg">
<g id="SVG">
<path id="Vector" d="M6.15285 8.20237L7.51982 9.56934L10.2538 6.8354M14.3547 8.20237C14.3547 9.01018 14.1956 9.81008 13.8864 10.5564C13.5773 11.3027 13.1242 11.9808 12.553 12.552C11.9818 13.1233 11.3037 13.5764 10.5573 13.8855C9.81102 14.1946 9.01112 14.3537 8.20331 14.3537C7.3955 14.3537 6.5956 14.1946 5.84928 13.8855C5.10296 13.5764 4.42484 13.1233 3.85363 12.552C3.28243 11.9808 2.82932 11.3027 2.52018 10.5564C2.21105 9.81008 2.05194 9.01018 2.05194 8.20237C2.05194 6.57092 2.70003 5.0063 3.85363 3.85269C5.00724 2.69909 6.57187 2.051 8.20331 2.051C9.83476 2.051 11.3994 2.69909 12.553 3.85269C13.7066 5.0063 14.3547 6.57092 14.3547 8.20237Z" stroke="var(--stroke-0, #16A34A)" stroke-width="1.36697" stroke-linecap="round" stroke-linejoin="round"/>
</g>
</svg>
