<svg preserveAspectRatio="none" width="100%" height="100%" overflow="visible" style="display: block;" viewBox="0 0 23.4973 23.4973" fill="none" xmlns="http://www.w3.org/2000/svg">
<g id="SVG">
<path id="Vector" d="M8.80793 11.749L10.766 13.7071L14.6823 9.79089M20.5566 11.749C20.5566 12.9061 20.3287 14.052 19.8859 15.121C19.443 16.1901 18.794 17.1615 17.9758 17.9797C17.1575 18.7979 16.1862 19.447 15.1171 19.8898C14.0481 20.3326 12.9022 20.5605 11.7451 20.5605C10.588 20.5605 9.44214 20.3326 8.37308 19.8898C7.30402 19.447 6.33265 18.7979 5.51442 17.9797C4.6962 17.1615 4.04715 16.1901 3.60433 15.121C3.16151 14.052 2.93359 12.9061 2.93359 11.749C2.93359 9.41205 3.86195 7.17081 5.51442 5.51833C7.1669 3.86585 9.40814 2.9375 11.7451 2.9375C14.0821 2.9375 16.3233 3.86585 17.9758 5.51833C19.6283 7.17081 20.5566 9.41205 20.5566 11.749Z" stroke="var(--stroke-0, #16A34A)" stroke-width="1.95811" stroke-linecap="round" stroke-linejoin="round"/>
</g>
</svg>
