<svg preserveAspectRatio="none" width="100%" height="100%" overflow="visible" style="display: block;" viewBox="0 0 16.4385 16.4385" fill="none" xmlns="http://www.w3.org/2000/svg">
<g id="SVG">
<path id="Vector" d="M6.16613 8.21938L7.53601 9.58925L10.2758 6.8495M14.3854 8.21938C14.3854 9.0289 14.226 9.8305 13.9162 10.5784C13.6064 11.3263 13.1523 12.0059 12.5799 12.5783C12.0074 13.1507 11.3279 13.6048 10.58 13.9146C9.83207 14.2244 9.03047 14.3838 8.22095 14.3838C7.41142 14.3838 6.60982 14.2244 5.86191 13.9146C5.11401 13.6048 4.43444 13.1507 3.86202 12.5783C3.2896 12.0059 2.83553 11.3263 2.52573 10.5784C2.21594 9.8305 2.05649 9.0289 2.05649 8.21938C2.05649 6.58446 2.70596 5.01651 3.86202 3.86045C5.01808 2.70439 6.58603 2.05492 8.22095 2.05492C9.85586 2.05492 11.4238 2.70439 12.5799 3.86045C13.7359 5.01651 14.3854 6.58446 14.3854 8.21938Z" stroke="var(--stroke-0, #16A34A)" stroke-width="1.36988" stroke-linecap="round" stroke-linejoin="round"/>
</g>
</svg>
