<svg preserveAspectRatio="none" width="100%" height="100%" overflow="visible" style="display: block;" viewBox="0 0 16.4037 16.4037" fill="none" xmlns="http://www.w3.org/2000/svg">
<g id="SVG">
<path id="Vector" d="M6.15285 8.20161L7.51982 9.56858L10.2538 6.83464M14.3547 8.20161C14.3547 9.00942 14.1956 9.80932 13.8864 10.5556C13.5773 11.302 13.1242 11.9801 12.553 12.5513C11.9818 13.1225 11.3037 13.5756 10.5573 13.8847C9.81102 14.1939 9.01112 14.353 8.20331 14.353C7.3955 14.353 6.5956 14.1939 5.84928 13.8847C5.10296 13.5756 4.42484 13.1225 3.85363 12.5513C3.28243 11.9801 2.82932 11.302 2.52018 10.5556C2.21105 9.80932 2.05194 9.00942 2.05194 8.20161C2.05194 6.57017 2.70003 5.00554 3.85363 3.85193C5.00724 2.69833 6.57187 2.05024 8.20331 2.05024C9.83476 2.05024 11.3994 2.69833 12.553 3.85193C13.7066 5.00554 14.3547 6.57017 14.3547 8.20161Z" stroke="var(--stroke-0, #16A34A)" stroke-width="1.36697" stroke-linecap="round" stroke-linejoin="round"/>
</g>
</svg>
