<svg preserveAspectRatio="none" width="100%" height="100%" overflow="visible" style="display: block;" viewBox="0 0 16.4037 16.4037" fill="none" xmlns="http://www.w3.org/2000/svg">
<g id="SVG">
<path id="Vector" d="M6.15285 8.20205L7.51982 9.56902L10.2538 6.83508M14.3547 8.20205C14.3547 9.00986 14.1956 9.80976 13.8864 10.5561C13.5773 11.3024 13.1242 11.9805 12.553 12.5517C11.9818 13.1229 11.3037 13.576 10.5573 13.8852C9.81102 14.1943 9.01112 14.3534 8.20331 14.3534C7.3955 14.3534 6.5956 14.1943 5.84928 13.8852C5.10296 13.576 4.42484 13.1229 3.85363 12.5517C3.28243 11.9805 2.82932 11.3024 2.52018 10.5561C2.21105 9.80976 2.05194 9.00986 2.05194 8.20205C2.05194 6.57061 2.70003 5.00598 3.85363 3.85237C5.00724 2.69877 6.57187 2.05068 8.20331 2.05068C9.83476 2.05068 11.3994 2.69877 12.553 3.85237C13.7066 5.00598 14.3547 6.57061 14.3547 8.20205Z" stroke="var(--stroke-0, #16A34A)" stroke-width="1.36697" stroke-linecap="round" stroke-linejoin="round"/>
</g>
</svg>
