<svg preserveAspectRatio="none" width="100%" height="100%" overflow="visible" style="display: block;" viewBox="0 0 16.4385 16.4385" fill="none" xmlns="http://www.w3.org/2000/svg">
<g id="SVG">
<path id="Vector" d="M6.16613 8.21832L7.53601 9.58819L10.2758 6.84844M14.3854 8.21832C14.3854 9.02784 14.226 9.82944 13.9162 10.5773C13.6064 11.3253 13.1523 12.0048 12.5799 12.5772C12.0074 13.1497 11.3279 13.6037 10.58 13.9135C9.83207 14.2233 9.03047 14.3828 8.22095 14.3828C7.41142 14.3828 6.60982 14.2233 5.86191 13.9135C5.11401 13.6037 4.43444 13.1497 3.86202 12.5772C3.2896 12.0048 2.83553 11.3253 2.52573 10.5773C2.21594 9.82944 2.05649 9.02784 2.05649 8.21832C2.05649 6.5834 2.70596 5.01545 3.86202 3.85939C5.01808 2.70333 6.58603 2.05386 8.22095 2.05386C9.85586 2.05386 11.4238 2.70333 12.5799 3.85939C13.7359 5.01545 14.3854 6.5834 14.3854 8.21832Z" stroke="var(--stroke-0, #16A34A)" stroke-width="1.36988" stroke-linecap="round" stroke-linejoin="round"/>
</g>
</svg>
