<svg preserveAspectRatio="none" width="100%" height="100%" overflow="visible" style="display: block;" viewBox="0 0 16.4385 16.4385" fill="none" xmlns="http://www.w3.org/2000/svg">
<g id="SVG">
<path id="Vector" d="M6.16613 8.21885L7.53601 9.58872L10.2758 6.84897M14.3854 8.21885C14.3854 9.02837 14.226 9.82997 13.9162 10.5779C13.6064 11.3258 13.1523 12.0053 12.5799 12.5778C12.0074 13.1502 11.3279 13.6043 10.58 13.9141C9.83207 14.2239 9.03047 14.3833 8.22095 14.3833C7.41142 14.3833 6.60982 14.2239 5.86191 13.9141C5.11401 13.6043 4.43444 13.1502 3.86202 12.5778C3.2896 12.0053 2.83553 11.3258 2.52573 10.5779C2.21594 9.82997 2.05649 9.02837 2.05649 8.21885C2.05649 6.58393 2.70596 5.01598 3.86202 3.85992C5.01808 2.70386 6.58603 2.05439 8.22095 2.05439C9.85586 2.05439 11.4238 2.70386 12.5799 3.85992C13.7359 5.01598 14.3854 6.58393 14.3854 8.21885Z" stroke="var(--stroke-0, #16A34A)" stroke-width="1.36988" stroke-linecap="round" stroke-linejoin="round"/>
</g>
</svg>
