<svg preserveAspectRatio="none" width="100%" height="100%" overflow="visible" style="display: block;" viewBox="0 0 23.4973 23.4973" fill="none" xmlns="http://www.w3.org/2000/svg">
<g id="SVG">
<path id="Vector" d="M8.80793 11.7471L10.766 13.7052L14.6823 9.78894M20.5566 11.7471C20.5566 12.9042 20.3287 14.05 19.8859 15.1191C19.443 16.1881 18.794 17.1595 17.9758 17.9777C17.1575 18.796 16.1862 19.445 15.1171 19.8878C14.0481 20.3306 12.9022 20.5586 11.7451 20.5586C10.588 20.5586 9.44214 20.3306 8.37308 19.8878C7.30402 19.445 6.33265 18.796 5.51442 17.9777C4.6962 17.1595 4.04715 16.1881 3.60433 15.1191C3.16151 14.05 2.93359 12.9042 2.93359 11.7471C2.93359 9.4101 3.86195 7.16885 5.51442 5.51638C7.1669 3.8639 9.40814 2.93555 11.7451 2.93555C14.0821 2.93555 16.3233 3.8639 17.9758 5.51638C19.6283 7.16885 20.5566 9.4101 20.5566 11.7471Z" stroke="var(--stroke-0, #16A34A)" stroke-width="1.95811" stroke-linecap="round" stroke-linejoin="round"/>
</g>
</svg>
