<svg preserveAspectRatio="none" width="100%" height="100%" overflow="visible" style="display: block;" viewBox="0 0 16.4037 16.4037" fill="none" xmlns="http://www.w3.org/2000/svg">
<g id="SVG">
<path id="Vector" d="M6.15285 8.20085L7.51982 9.56783L10.2538 6.83388M14.3547 8.20085C14.3547 9.00866 14.1956 9.80856 13.8864 10.5549C13.5773 11.3012 13.1242 11.9793 12.553 12.5505C11.9818 13.1217 11.3037 13.5748 10.5573 13.884C9.81102 14.1931 9.01112 14.3522 8.20331 14.3522C7.3955 14.3522 6.5956 14.1931 5.84928 13.884C5.10296 13.5748 4.42484 13.1217 3.85363 12.5505C3.28243 11.9793 2.82932 11.3012 2.52018 10.5549C2.21105 9.80856 2.05194 9.00866 2.05194 8.20085C2.05194 6.56941 2.70003 5.00478 3.85363 3.85118C5.00724 2.69757 6.57187 2.04948 8.20331 2.04948C9.83476 2.04948 11.3994 2.69757 12.553 3.85118C13.7066 5.00478 14.3547 6.56941 14.3547 8.20085Z" stroke="var(--stroke-0, #16A34A)" stroke-width="1.36697" stroke-linecap="round" stroke-linejoin="round"/>
</g>
</svg>
