<svg preserveAspectRatio="none" width="100%" height="100%" overflow="visible" style="display: block;" viewBox="0 0 16.4385 16.4385" fill="none" xmlns="http://www.w3.org/2000/svg">
<g id="SVG">
<path id="Vector" d="M6.16613 8.21879L7.53601 9.58867L10.2758 6.84891M14.3854 8.21879C14.3854 9.02832 14.226 9.82992 13.9162 10.5778C13.6064 11.3257 13.1523 12.0053 12.5799 12.5777C12.0074 13.1501 11.3279 13.6042 10.58 13.914C9.83207 14.2238 9.03047 14.3832 8.22095 14.3832C7.41142 14.3832 6.60982 14.2238 5.86191 13.914C5.11401 13.6042 4.43444 13.1501 3.86202 12.5777C3.2896 12.0053 2.83553 11.3257 2.52573 10.5778C2.21594 9.82992 2.05649 9.02832 2.05649 8.21879C2.05649 6.58388 2.70596 5.01592 3.86202 3.85986C5.01808 2.7038 6.58603 2.05434 8.22095 2.05434C9.85586 2.05434 11.4238 2.7038 12.5799 3.85986C13.7359 5.01592 14.3854 6.58388 14.3854 8.21879Z" stroke="var(--stroke-0, #16A34A)" stroke-width="1.36988" stroke-linecap="round" stroke-linejoin="round"/>
</g>
</svg>
