<svg preserveAspectRatio="none" width="100%" height="100%" overflow="visible" style="display: block;" viewBox="0 0 16.2381 16.2381" fill="none" xmlns="http://www.w3.org/2000/svg">
<g id="SVG">
<path id="Vector" d="M6.08356 8.11976L7.43673 9.47294L10.1431 6.76659M14.2026 8.11976C14.2026 8.91942 14.0451 9.71125 13.7391 10.45C13.4331 11.1888 12.9845 11.8601 12.4191 12.4255C11.8537 12.991 11.1824 13.4395 10.4436 13.7455C9.7048 14.0515 8.91298 14.209 8.11332 14.209C7.31366 14.209 6.52184 14.0515 5.78305 13.7455C5.04426 13.4395 4.37299 12.991 3.80754 12.4255C3.2421 11.8601 2.79357 11.1888 2.48755 10.45C2.18154 9.71125 2.02403 8.91942 2.02403 8.11976C2.02403 6.50478 2.66558 4.95595 3.80754 3.81399C4.94951 2.67203 6.49834 2.03048 8.11332 2.03048C9.7283 2.03048 11.2771 2.67203 12.4191 3.81399C13.5611 4.95595 14.2026 6.50478 14.2026 8.11976Z" stroke="var(--stroke-0, #16A34A)" stroke-width="1.35318" stroke-linecap="round" stroke-linejoin="round"/>
</g>
</svg>
