<svg preserveAspectRatio="none" width="100%" height="100%" overflow="visible" style="display: block;" viewBox="0 0 16.4385 16.4385" fill="none" xmlns="http://www.w3.org/2000/svg">
<g id="SVG">
<path id="Vector" d="M6.16613 8.21985L7.53601 9.58973L10.2758 6.84997M14.3854 8.21985C14.3854 9.02938 14.226 9.83098 13.9162 10.5789C13.6064 11.3268 13.1523 12.0064 12.5799 12.5788C12.0074 13.1512 11.3279 13.6053 10.58 13.9151C9.83207 14.2249 9.03047 14.3843 8.22095 14.3843C7.41142 14.3843 6.60982 14.2249 5.86191 13.9151C5.11401 13.6053 4.43444 13.1512 3.86202 12.5788C3.2896 12.0064 2.83553 11.3268 2.52573 10.5789C2.21594 9.83098 2.05649 9.02938 2.05649 8.21985C2.05649 6.58494 2.70596 5.01698 3.86202 3.86092C5.01808 2.70487 6.58603 2.0554 8.22095 2.0554C9.85586 2.0554 11.4238 2.70487 12.5799 3.86092C13.7359 5.01698 14.3854 6.58494 14.3854 8.21985Z" stroke="var(--stroke-0, #16A34A)" stroke-width="1.36988" stroke-linecap="round" stroke-linejoin="round"/>
</g>
</svg>
