<svg preserveAspectRatio="none" width="100%" height="100%" overflow="visible" style="display: block;" viewBox="0 0 16.4385 16.4385" fill="none" xmlns="http://www.w3.org/2000/svg">
<g id="SVG">
<path id="Vector" d="M6.16613 8.21837L7.53601 9.58825L10.2758 6.84849M14.3854 8.21837C14.3854 9.0279 14.226 9.8295 13.9162 10.5774C13.6064 11.3253 13.1523 12.0049 12.5799 12.5773C12.0074 13.1497 11.3279 13.6038 10.58 13.9136C9.83207 14.2234 9.03047 14.3828 8.22095 14.3828C7.41142 14.3828 6.60982 14.2234 5.86191 13.9136C5.11401 13.6038 4.43444 13.1497 3.86202 12.5773C3.2896 12.0049 2.83553 11.3253 2.52573 10.5774C2.21594 9.8295 2.05649 9.0279 2.05649 8.21837C2.05649 6.58346 2.70596 5.0155 3.86202 3.85945C5.01808 2.70339 6.58603 2.05392 8.22095 2.05392C9.85586 2.05392 11.4238 2.70339 12.5799 3.85945C13.7359 5.0155 14.3854 6.58346 14.3854 8.21837Z" stroke="var(--stroke-0, #16A34A)" stroke-width="1.36988" stroke-linecap="round" stroke-linejoin="round"/>
</g>
</svg>
