<svg preserveAspectRatio="none" width="100%" height="100%" overflow="visible" style="display: block;" viewBox="0 0 16.2381 16.2381" fill="none" xmlns="http://www.w3.org/2000/svg">
<g id="SVG">
<path id="Vector" d="M6.08356 8.11583L7.43673 9.46901L10.1431 6.76266M14.2026 8.11583C14.2026 8.91549 14.0451 9.70731 13.7391 10.4461C13.4331 11.1849 12.9845 11.8562 12.4191 12.4216C11.8537 12.987 11.1824 13.4356 10.4436 13.7416C9.7048 14.0476 8.91298 14.2051 8.11332 14.2051C7.31366 14.2051 6.52184 14.0476 5.78305 13.7416C5.04426 13.4356 4.37299 12.987 3.80754 12.4216C3.2421 11.8562 2.79357 11.1849 2.48755 10.4461C2.18154 9.70731 2.02403 8.91549 2.02403 8.11583C2.02403 6.50085 2.66558 4.95202 3.80754 3.81005C4.94951 2.66809 6.49834 2.02654 8.11332 2.02654C9.7283 2.02654 11.2771 2.66809 12.4191 3.81005C13.5611 4.95202 14.2026 6.50085 14.2026 8.11583Z" stroke="var(--stroke-0, #16A34A)" stroke-width="1.35318" stroke-linecap="round" stroke-linejoin="round"/>
</g>
</svg>
