<svg preserveAspectRatio="none" width="100%" height="100%" overflow="visible" style="display: block;" viewBox="0 0 16.4037 16.4037" fill="none" xmlns="http://www.w3.org/2000/svg">
<g id="SVG">
<path id="Vector" d="M6.15285 8.20129L7.51982 9.56827L10.2538 6.83432M14.3547 8.20129C14.3547 9.0091 14.1956 9.809 13.8864 10.5553C13.5773 11.3016 13.1242 11.9798 12.553 12.551C11.9818 13.1222 11.3037 13.5753 10.5573 13.8844C9.81102 14.1936 9.01112 14.3527 8.20331 14.3527C7.3955 14.3527 6.5956 14.1936 5.84928 13.8844C5.10296 13.5753 4.42484 13.1222 3.85363 12.551C3.28243 11.9798 2.82932 11.3016 2.52018 10.5553C2.21105 9.809 2.05194 9.0091 2.05194 8.20129C2.05194 6.56985 2.70003 5.00522 3.85363 3.85162C5.00724 2.69801 6.57187 2.04992 8.20331 2.04992C9.83476 2.04992 11.3994 2.69801 12.553 3.85162C13.7066 5.00522 14.3547 6.56985 14.3547 8.20129Z" stroke="var(--stroke-0, #16A34A)" stroke-width="1.36697" stroke-linecap="round" stroke-linejoin="round"/>
</g>
</svg>
