<svg preserveAspectRatio="none" width="100%" height="100%" overflow="visible" style="display: block;" viewBox="0 0 16.4385 16.4385" fill="none" xmlns="http://www.w3.org/2000/svg">
<g id="SVG">
<path id="Vector" d="M6.16613 8.21979L7.53601 9.58967L10.2758 6.84992M14.3854 8.21979C14.3854 9.02932 14.226 9.83092 13.9162 10.5788C13.6064 11.3267 13.1523 12.0063 12.5799 12.5787C12.0074 13.1511 11.3279 13.6052 10.58 13.915C9.83207 14.2248 9.03047 14.3842 8.22095 14.3842C7.41142 14.3842 6.60982 14.2248 5.86191 13.915C5.11401 13.6052 4.43444 13.1511 3.86202 12.5787C3.2896 12.0063 2.83553 11.3267 2.52573 10.5788C2.21594 9.83092 2.05649 9.02932 2.05649 8.21979C2.05649 6.58488 2.70596 5.01693 3.86202 3.86087C5.01808 2.70481 6.58603 2.05534 8.22095 2.05534C9.85586 2.05534 11.4238 2.70481 12.5799 3.86087C13.7359 5.01693 14.3854 6.58488 14.3854 8.21979Z" stroke="var(--stroke-0, #16A34A)" stroke-width="1.36988" stroke-linecap="round" stroke-linejoin="round"/>
</g>
</svg>
