<svg preserveAspectRatio="none" width="100%" height="100%" overflow="visible" style="display: block;" viewBox="0 0 16.2381 16.2381" fill="none" xmlns="http://www.w3.org/2000/svg">
<g id="SVG">
<path id="Vector" d="M6.08356 8.11776L7.43673 9.47093L10.1431 6.76458M14.2026 8.11776C14.2026 8.91741 14.0451 9.70924 13.7391 10.448C13.4331 11.1868 12.9845 11.8581 12.4191 12.4235C11.8537 12.989 11.1824 13.4375 10.4436 13.7435C9.7048 14.0495 8.91298 14.207 8.11332 14.207C7.31366 14.207 6.52184 14.0495 5.78305 13.7435C5.04426 13.4375 4.37299 12.989 3.80754 12.4235C3.2421 11.8581 2.79357 11.1868 2.48755 10.448C2.18154 9.70924 2.02403 8.91741 2.02403 8.11776C2.02403 6.50278 2.66558 4.95395 3.80754 3.81198C4.94951 2.67002 6.49834 2.02847 8.11332 2.02847C9.7283 2.02847 11.2771 2.67002 12.4191 3.81198C13.5611 4.95395 14.2026 6.50278 14.2026 8.11776Z" stroke="var(--stroke-0, #16A34A)" stroke-width="1.35318" stroke-linecap="round" stroke-linejoin="round"/>
</g>
</svg>
