<svg width="195" height="203" viewBox="0 0 195 203" fill="none" xmlns="http://www.w3.org/2000/svg">
<rect x="341.095" y="202.629" width="15.9792" height="394.604" transform="rotate(136.91 341.095 202.629)" fill="url(#paint0_linear_1_983)"/>
<rect x="294.221" y="246.479" width="16.25" height="394.604" transform="rotate(136.91 294.221 246.479)" fill="url(#paint1_linear_1_983)"/>
<rect x="23.5372" y="-42.8784" width="15.9792" height="394.604" transform="rotate(-43.0903 23.5372 -42.8784)" fill="url(#paint2_linear_1_983)"/>
<rect x="316.449" y="223.46" width="15.9792" height="394.604" transform="rotate(136.91 316.449 223.46)" fill="url(#paint3_linear_1_983)"/>
<rect x="363.324" y="179.61" width="15.9792" height="394.604" transform="rotate(136.91 363.324 179.61)" fill="url(#paint4_linear_1_983)"/>
<rect x="328.316" y="212.359" width="16.25" height="394.604" transform="rotate(136.91 328.316 212.359)" fill="url(#paint5_linear_1_983)"/>
<rect x="351.655" y="190.527" width="15.9792" height="394.604" transform="rotate(136.91 351.655 190.527)" fill="url(#paint6_linear_1_983)"/>
<rect x="281.243" y="256.394" width="15.9792" height="394.604" transform="rotate(136.91 281.243 256.394)" fill="url(#paint7_linear_1_983)"/>
<defs>
<linearGradient id="paint0_linear_1_983" x1="348.722" y1="187.138" x2="356.807" y2="621.455" gradientUnits="userSpaceOnUse">
<stop stop-color="white" stop-opacity="0.4"/>
<stop offset="0.473958" stop-color="#2A2A2A"/>
<stop offset="1" stop-color="white" stop-opacity="0.2"/>
</linearGradient>
<linearGradient id="paint1_linear_1_983" x1="301.977" y1="230.988" x2="288.813" y2="640.751" gradientUnits="userSpaceOnUse">
<stop stop-color="white" stop-opacity="0.69"/>
<stop offset="0.473958" stop-color="#2A2A2A"/>
<stop offset="1" stop-color="white" stop-opacity="0.86"/>
</linearGradient>
<linearGradient id="paint2_linear_1_983" x1="31.5268" y1="-42.7328" x2="33.3649" y2="356.797" gradientUnits="userSpaceOnUse">
<stop stop-color="white"/>
<stop offset="0.473958" stop-color="#2A2A2A"/>
<stop offset="1" stop-color="white"/>
</linearGradient>
<linearGradient id="paint3_linear_1_983" x1="324.439" y1="219.661" x2="324.439" y2="618.065" gradientUnits="userSpaceOnUse">
<stop stop-color="white"/>
<stop offset="0.473958" stop-color="#2A2A2A"/>
<stop offset="1" stop-color="white"/>
</linearGradient>
<linearGradient id="paint4_linear_1_983" x1="371.313" y1="175.811" x2="371.313" y2="574.214" gradientUnits="userSpaceOnUse">
<stop stop-color="white"/>
<stop offset="0.473958" stop-color="#2A2A2A"/>
<stop offset="1" stop-color="white"/>
</linearGradient>
<linearGradient id="paint5_linear_1_983" x1="336.441" y1="170.706" x2="336.441" y2="606.963" gradientUnits="userSpaceOnUse">
<stop offset="0.091929" stop-color="white"/>
<stop offset="0.473958" stop-color="#2A2A2A"/>
<stop offset="1" stop-color="white"/>
</linearGradient>
<linearGradient id="paint6_linear_1_983" x1="359.644" y1="148.875" x2="359.644" y2="585.131" gradientUnits="userSpaceOnUse">
<stop offset="0.091929" stop-color="white"/>
<stop offset="0.473958" stop-color="#2A2A2A"/>
<stop offset="1" stop-color="white"/>
</linearGradient>
<linearGradient id="paint7_linear_1_983" x1="289.233" y1="214.741" x2="289.233" y2="650.998" gradientUnits="userSpaceOnUse">
<stop offset="0.091929" stop-color="white"/>
<stop offset="0.473958" stop-color="#2A2A2A"/>
<stop offset="1" stop-color="white"/>
</linearGradient>
</defs>
</svg>
