<svg width="162" height="253" viewBox="0 0 162 253" fill="none" xmlns="http://www.w3.org/2000/svg">
<g clip-path="url(#clip0_1_847)">
<rect width="60.1522" height="220.9" transform="matrix(-0.595784 -0.803144 0.202191 -0.979346 35.8368 214.979)" fill="url(#paint0_linear_1_847)"/>
<rect width="60.1522" height="220.9" transform="matrix(-0.595784 -0.803144 0.202191 -0.979346 50.1514 320.094)" fill="url(#paint1_linear_1_847)"/>
<rect width="60.1522" height="220.9" transform="matrix(-0.595784 -0.803144 0.202191 -0.979346 64.4658 214.979)" fill="url(#paint2_linear_1_847)"/>
<rect width="60.1522" height="220.9" transform="matrix(-0.595784 -0.803144 0.202191 -0.979346 78.7804 320.094)" fill="url(#paint3_linear_1_847)"/>
<rect width="60.1522" height="220.9" transform="matrix(-0.595784 -0.803144 0.20219 -0.979346 93.095 214.979)" fill="url(#paint4_linear_1_847)"/>
<rect width="60.1522" height="220.9" transform="matrix(-0.595784 -0.803144 0.20219 -0.979346 107.41 320.094)" fill="url(#paint5_linear_1_847)"/>
<rect width="60.1522" height="220.9" transform="matrix(-0.595784 -0.803144 0.20219 -0.979346 121.724 214.979)" fill="url(#paint6_linear_1_847)"/>
<rect width="60.1522" height="220.9" transform="matrix(-0.595784 -0.803144 0.202191 -0.979346 136.035 320.094)" fill="url(#paint7_linear_1_847)"/>
<rect width="60.1522" height="220.9" transform="matrix(-0.595784 -0.803144 0.202191 -0.979346 150.353 214.979)" fill="url(#paint8_linear_1_847)"/>
<rect width="60.1522" height="220.9" transform="matrix(-0.595784 -0.803144 0.202191 -0.979346 164.664 320.094)" fill="url(#paint9_linear_1_847)"/>
</g>
<defs>
<linearGradient id="paint0_linear_1_847" x1="30.0761" y1="-23.3173" x2="30.0761" y2="220.9" gradientUnits="userSpaceOnUse">
<stop stop-color="white" stop-opacity="0"/>
<stop offset="0.473958" stop-color="#5D5D5D"/>
<stop offset="1" stop-color="white" stop-opacity="0"/>
</linearGradient>
<linearGradient id="paint1_linear_1_847" x1="30.0761" y1="-23.3173" x2="30.0761" y2="220.9" gradientUnits="userSpaceOnUse">
<stop stop-color="white" stop-opacity="0"/>
<stop offset="0.473958"/>
<stop offset="1" stop-color="white" stop-opacity="0"/>
</linearGradient>
<linearGradient id="paint2_linear_1_847" x1="30.0761" y1="-23.3173" x2="30.0761" y2="220.9" gradientUnits="userSpaceOnUse">
<stop stop-color="white" stop-opacity="0"/>
<stop offset="0.473958" stop-color="#5D5D5D"/>
<stop offset="1" stop-color="white" stop-opacity="0"/>
</linearGradient>
<linearGradient id="paint3_linear_1_847" x1="30.0761" y1="-23.3173" x2="30.0761" y2="220.9" gradientUnits="userSpaceOnUse">
<stop stop-color="white" stop-opacity="0"/>
<stop offset="0.473958"/>
<stop offset="1" stop-color="white" stop-opacity="0"/>
</linearGradient>
<linearGradient id="paint4_linear_1_847" x1="30.0761" y1="-23.3173" x2="30.0761" y2="220.9" gradientUnits="userSpaceOnUse">
<stop stop-color="white" stop-opacity="0"/>
<stop offset="0.473958" stop-color="#5D5D5D"/>
<stop offset="1" stop-color="white" stop-opacity="0"/>
</linearGradient>
<linearGradient id="paint5_linear_1_847" x1="30.0761" y1="-23.3173" x2="30.0761" y2="220.9" gradientUnits="userSpaceOnUse">
<stop stop-color="white" stop-opacity="0"/>
<stop offset="0.473958"/>
<stop offset="1" stop-color="white" stop-opacity="0"/>
</linearGradient>
<linearGradient id="paint6_linear_1_847" x1="30.0761" y1="-23.3173" x2="30.0761" y2="220.9" gradientUnits="userSpaceOnUse">
<stop stop-color="white" stop-opacity="0"/>
<stop offset="0.473958" stop-color="#5D5D5D"/>
<stop offset="1" stop-color="white" stop-opacity="0"/>
</linearGradient>
<linearGradient id="paint7_linear_1_847" x1="30.0761" y1="-23.3173" x2="30.0761" y2="220.9" gradientUnits="userSpaceOnUse">
<stop stop-color="white" stop-opacity="0"/>
<stop offset="0.473958"/>
<stop offset="1" stop-color="white" stop-opacity="0"/>
</linearGradient>
<linearGradient id="paint8_linear_1_847" x1="30.0761" y1="-23.3173" x2="30.0761" y2="220.9" gradientUnits="userSpaceOnUse">
<stop stop-color="white" stop-opacity="0"/>
<stop offset="0.473958" stop-color="#5D5D5D"/>
<stop offset="1" stop-color="white" stop-opacity="0"/>
</linearGradient>
<linearGradient id="paint9_linear_1_847" x1="30.0761" y1="-23.3173" x2="30.0761" y2="220.9" gradientUnits="userSpaceOnUse">
<stop stop-color="white" stop-opacity="0"/>
<stop offset="0.473958"/>
<stop offset="1" stop-color="white" stop-opacity="0"/>
</linearGradient>
<clipPath id="clip0_1_847">
<rect width="195" height="252.028" fill="white"/>
</clipPath>
</defs>
</svg>
