<svg preserveAspectRatio="none" width="100%" height="100%" overflow="visible" style="display: block;" viewBox="0 0 72 72" fill="none" xmlns="http://www.w3.org/2000/svg">
<g id="ChatbotWidget">
<circle id="Ellipse 1" cx="36" cy="36" r="36" fill="var(--fill-0, black)"/>
<circle id="Ellipse 2" cx="36" cy="36" r="31.25" stroke="var(--stroke-0, white)" stroke-width="1.5"/>
<g id="Frame">
<path id="Vector" d="M41.3333 33.3333C41.3333 34.0406 41.0524 34.7189 40.5523 35.219C40.0522 35.719 39.3739 36 38.6667 36H29.104C28.3968 36.0002 27.7186 36.2812 27.2187 36.7813L24.2827 39.7173C24.1503 39.8497 23.9816 39.9398 23.798 39.9764C23.6144 40.0129 23.424 39.9941 23.2511 39.9225C23.0781 39.8508 22.9303 39.7295 22.8262 39.5739C22.7222 39.4182 22.6667 39.2352 22.6667 39.048V25.3333C22.6667 24.6261 22.9476 23.9478 23.4477 23.4477C23.9478 22.9476 24.6261 22.6667 25.3333 22.6667H38.6667C39.3739 22.6667 40.0522 22.9476 40.5523 23.4477C41.0524 23.9478 41.3333 24.6261 41.3333 25.3333V33.3333Z" stroke="var(--stroke-0, white)" stroke-width="2.66667" stroke-linecap="round" stroke-linejoin="round"/>
<path id="Vector_2" d="M46.6667 32C47.3739 32 48.0522 32.281 48.5523 32.781C49.0524 33.2811 49.3333 33.9594 49.3333 34.6667V48.3813C49.3333 48.5685 49.2778 48.7516 49.1738 48.9072C49.0697 49.0629 48.9219 49.1842 48.7489 49.2558C48.576 49.3275 48.3856 49.3462 48.202 49.3097C48.0184 49.2732 47.8497 49.183 47.7173 49.0507L44.7813 46.1147C44.2814 45.6145 43.6032 45.3335 42.896 45.3333H33.3333C32.6261 45.3333 31.9478 45.0524 31.4477 44.5523C30.9476 44.0522 30.6667 43.3739 30.6667 42.6667V41.3333" stroke="var(--stroke-0, white)" stroke-width="2.66667" stroke-linecap="round" stroke-linejoin="round"/>
</g>
</g>
</svg>
