<svg preserveAspectRatio="none" width="100%" height="100%" overflow="visible" style="display: block;" viewBox="0 0 35 33.2501" fill="none" xmlns="http://www.w3.org/2000/svg">
<path id="Icon" d="M29.75 13.125V5.25C29.75 3.317 28.183 1.75 26.25 1.75H5.25C3.317 1.75 1.75 3.31701 1.75 5.25V18.9457C1.75 20.8787 3.317 22.4457 5.25 22.4457H7.98913V29.75L15.2935 22.4457H15.75M24.7853 26.9348L29.3505 31.5V26.9348H29.75C31.683 26.9348 33.25 25.3678 33.25 23.4348V17.5C33.25 15.567 31.683 14 29.75 14H19.25C17.317 14 15.75 15.567 15.75 17.5V23.4348C15.75 25.3678 17.317 26.9348 19.25 26.9348H24.7853Z" stroke="var(--stroke-0, white)" stroke-width="3.5" stroke-linecap="round" stroke-linejoin="round"/>
</svg>
