<svg width="243" height="317" viewBox="0 0 243 317" fill="none" xmlns="http://www.w3.org/2000/svg">
<g clip-path="url(#clip0_144_376)">
<g clip-path="url(#paint0_angular_144_376_clip_path)" data-figma-skip-parse="true"><g transform="matrix(-2.93989e-09 -0.0703098 -0.0703098 4.72267e-09 158.154 228.411)"><foreignObject x="-1002.58" y="-1002.58" width="2005.16" height="2005.16"><div xmlns="http://www.w3.org/1999/xhtml" style="background:conic-gradient(from 90deg,rgba(72, 62, 62, 1) 0deg,rgba(196, 196, 196, 0) 360deg);height:100%;width:100%;opacity:1"></div></foreignObject></g></g><path opacity="0.6" d="M87.8444 228.411L140.006 280.572C150.029 290.595 166.28 290.595 176.303 280.572L228.464 228.411L158.154 158.101L87.8444 228.411Z" data-figma-gradient-fill="{&#34;type&#34;:&#34;GRADIENT_ANGULAR&#34;,&#34;stops&#34;:[{&#34;color&#34;:{&#34;r&#34;:0.28365385532379150,&#34;g&#34;:0.24410594999790192,&#34;b&#34;:0.24410594999790192,&#34;a&#34;:1.0},&#34;position&#34;:0.0},{&#34;color&#34;:{&#34;r&#34;:0.76862746477127075,&#34;g&#34;:0.76862746477127075,&#34;b&#34;:0.76862746477127075,&#34;a&#34;:0.0},&#34;position&#34;:1.0}],&#34;stopsVar&#34;:[{&#34;color&#34;:{&#34;r&#34;:0.28365385532379150,&#34;g&#34;:0.24410594999790192,&#34;b&#34;:0.24410594999790192,&#34;a&#34;:1.0},&#34;position&#34;:0.0},{&#34;color&#34;:{&#34;r&#34;:0.76862746477127075,&#34;g&#34;:0.76862746477127075,&#34;b&#34;:0.76862746477127075,&#34;a&#34;:0.0},&#34;position&#34;:1.0}],&#34;transform&#34;:{&#34;m00&#34;:-5.8797768360818736e-06,&#34;m01&#34;:-140.61964416503906,&#34;m02&#34;:228.46406555175781,&#34;m10&#34;:-140.61965942382812,&#34;m11&#34;:9.4453416750184260e-06,&#34;m12&#34;:298.7204589843750},&#34;opacity&#34;:1.0,&#34;blendMode&#34;:&#34;NORMAL&#34;,&#34;visible&#34;:true}"/>
<g clip-path="url(#paint1_angular_144_376_clip_path)" data-figma-skip-parse="true"><g transform="matrix(-2.98679e-09 0.0703098 0.0703098 1.204e-09 158.238 87.6304)"><foreignObject x="-1002.58" y="-1002.58" width="2005.16" height="2005.16"><div xmlns="http://www.w3.org/1999/xhtml" style="background:conic-gradient(from 90deg,rgba(72, 62, 62, 1) 0deg,rgba(196, 196, 196, 0) 360deg);height:100%;width:100%;opacity:1"></div></foreignObject></g></g><path opacity="0.6" d="M228.548 87.6304L176.386 35.4693C166.363 25.446 150.112 25.446 140.089 35.4692L87.928 87.6304L158.238 157.94L228.548 87.6304Z" data-figma-gradient-fill="{&#34;type&#34;:&#34;GRADIENT_ANGULAR&#34;,&#34;stops&#34;:[{&#34;color&#34;:{&#34;r&#34;:0.28365385532379150,&#34;g&#34;:0.24410594999790192,&#34;b&#34;:0.24410594999790192,&#34;a&#34;:1.0},&#34;position&#34;:0.0},{&#34;color&#34;:{&#34;r&#34;:0.76862746477127075,&#34;g&#34;:0.76862746477127075,&#34;b&#34;:0.76862746477127075,&#34;a&#34;:0.0},&#34;position&#34;:1.0}],&#34;stopsVar&#34;:[{&#34;color&#34;:{&#34;r&#34;:0.28365385532379150,&#34;g&#34;:0.24410594999790192,&#34;b&#34;:0.24410594999790192,&#34;a&#34;:1.0},&#34;position&#34;:0.0},{&#34;color&#34;:{&#34;r&#34;:0.76862746477127075,&#34;g&#34;:0.76862746477127075,&#34;b&#34;:0.76862746477127075,&#34;a&#34;:0.0},&#34;position&#34;:1.0}],&#34;transform&#34;:{&#34;m00&#34;:-5.9735743889177684e-06,&#34;m01&#34;:140.61964416503906,&#34;m02&#34;:87.927970886230469,&#34;m10&#34;:140.61965942382812,&#34;m11&#34;:2.4080077309918124e-06,&#34;m12&#34;:17.320537567138672},&#34;opacity&#34;:1.0,&#34;blendMode&#34;:&#34;NORMAL&#34;,&#34;visible&#34;:true}"/>
<g clip-path="url(#paint2_angular_144_376_clip_path)" data-figma-skip-parse="true"><g transform="matrix(-2.98679e-09 0.0703098 0.0703098 1.204e-09 158.31 87.3091)"><foreignObject x="-1002.58" y="-1002.58" width="2005.16" height="2005.16"><div xmlns="http://www.w3.org/1999/xhtml" style="background:conic-gradient(from 90deg,rgba(72, 62, 62, 1) 0deg,rgba(196, 196, 196, 0) 360deg);height:100%;width:100%;opacity:1"></div></foreignObject></g></g><path opacity="0.6" d="M228.62 87.3091L176.459 35.148C166.435 25.1247 150.184 25.1247 140.161 35.148L88 87.3091L158.31 157.619L228.62 87.3091Z" data-figma-gradient-fill="{&#34;type&#34;:&#34;GRADIENT_ANGULAR&#34;,&#34;stops&#34;:[{&#34;color&#34;:{&#34;r&#34;:0.28365385532379150,&#34;g&#34;:0.24410594999790192,&#34;b&#34;:0.24410594999790192,&#34;a&#34;:1.0},&#34;position&#34;:0.0},{&#34;color&#34;:{&#34;r&#34;:0.76862746477127075,&#34;g&#34;:0.76862746477127075,&#34;b&#34;:0.76862746477127075,&#34;a&#34;:0.0},&#34;position&#34;:1.0}],&#34;stopsVar&#34;:[{&#34;color&#34;:{&#34;r&#34;:0.28365385532379150,&#34;g&#34;:0.24410594999790192,&#34;b&#34;:0.24410594999790192,&#34;a&#34;:1.0},&#34;position&#34;:0.0},{&#34;color&#34;:{&#34;r&#34;:0.76862746477127075,&#34;g&#34;:0.76862746477127075,&#34;b&#34;:0.76862746477127075,&#34;a&#34;:0.0},&#34;position&#34;:1.0}],&#34;transform&#34;:{&#34;m00&#34;:-5.9735743889177684e-06,&#34;m01&#34;:140.61964416503906,&#34;m02&#34;:88.000022888183594,&#34;m10&#34;:140.61965942382812,&#34;m11&#34;:2.4080077309918124e-06,&#34;m12&#34;:16.999248504638672},&#34;opacity&#34;:1.0,&#34;blendMode&#34;:&#34;NORMAL&#34;,&#34;visible&#34;:true}"/>
<g clip-path="url(#paint3_angular_144_376_clip_path)" data-figma-skip-parse="true"><g transform="matrix(0.0703098 -2.93989e-09 -4.72267e-09 -0.0703098 87.8027 158.069)"><foreignObject x="-1002.58" y="-1002.58" width="2005.16" height="2005.16"><div xmlns="http://www.w3.org/1999/xhtml" style="background:conic-gradient(from 90deg,rgba(72, 62, 62, 1) 0deg,rgba(196, 196, 196, 0) 360deg);height:100%;width:100%;opacity:1"></div></foreignObject></g></g><path opacity="0.6" d="M87.8027 87.7588L35.6416 139.92C25.6184 149.943 25.6184 166.194 35.6416 176.217L87.8027 228.378L158.113 158.069L87.8027 87.7588Z" data-figma-gradient-fill="{&#34;type&#34;:&#34;GRADIENT_ANGULAR&#34;,&#34;stops&#34;:[{&#34;color&#34;:{&#34;r&#34;:0.28365385532379150,&#34;g&#34;:0.24410594999790192,&#34;b&#34;:0.24410594999790192,&#34;a&#34;:1.0},&#34;position&#34;:0.0},{&#34;color&#34;:{&#34;r&#34;:0.76862746477127075,&#34;g&#34;:0.76862746477127075,&#34;b&#34;:0.76862746477127075,&#34;a&#34;:0.0},&#34;position&#34;:1.0}],&#34;stopsVar&#34;:[{&#34;color&#34;:{&#34;r&#34;:0.28365385532379150,&#34;g&#34;:0.24410594999790192,&#34;b&#34;:0.24410594999790192,&#34;a&#34;:1.0},&#34;position&#34;:0.0},{&#34;color&#34;:{&#34;r&#34;:0.76862746477127075,&#34;g&#34;:0.76862746477127075,&#34;b&#34;:0.76862746477127075,&#34;a&#34;:0.0},&#34;position&#34;:1.0}],&#34;transform&#34;:{&#34;m00&#34;:140.61965942382812,&#34;m01&#34;:-9.4453416750184260e-06,&#34;m02&#34;:17.492912292480469,&#34;m10&#34;:-5.8797768360818736e-06,&#34;m11&#34;:-140.61964416503906,&#34;m12&#34;:228.37843322753906},&#34;opacity&#34;:1.0,&#34;blendMode&#34;:&#34;NORMAL&#34;,&#34;visible&#34;:true}"/>
<g clip-path="url(#paint4_angular_144_376_clip_path)" data-figma-skip-parse="true"><g transform="matrix(-0.0703098 -2.98679e-09 -1.204e-09 0.0703098 228.429 158.062)"><foreignObject x="-1002.58" y="-1002.58" width="2005.16" height="2005.16"><div xmlns="http://www.w3.org/1999/xhtml" style="background:conic-gradient(from 90deg,rgba(72, 62, 62, 1) 0deg,rgba(196, 196, 196, 0) 360deg);height:100%;width:100%;opacity:1"></div></foreignObject></g></g><path opacity="0.6" d="M228.429 228.372L280.59 176.211C290.613 166.188 290.613 149.937 280.59 139.914L228.429 87.7524L158.119 158.062L228.429 228.372Z" data-figma-gradient-fill="{&#34;type&#34;:&#34;GRADIENT_ANGULAR&#34;,&#34;stops&#34;:[{&#34;color&#34;:{&#34;r&#34;:0.28365385532379150,&#34;g&#34;:0.24410594999790192,&#34;b&#34;:0.24410594999790192,&#34;a&#34;:1.0},&#34;position&#34;:0.0},{&#34;color&#34;:{&#34;r&#34;:0.76862746477127075,&#34;g&#34;:0.76862746477127075,&#34;b&#34;:0.76862746477127075,&#34;a&#34;:0.0},&#34;position&#34;:1.0}],&#34;stopsVar&#34;:[{&#34;color&#34;:{&#34;r&#34;:0.28365385532379150,&#34;g&#34;:0.24410594999790192,&#34;b&#34;:0.24410594999790192,&#34;a&#34;:1.0},&#34;position&#34;:0.0},{&#34;color&#34;:{&#34;r&#34;:0.76862746477127075,&#34;g&#34;:0.76862746477127075,&#34;b&#34;:0.76862746477127075,&#34;a&#34;:0.0},&#34;position&#34;:1.0}],&#34;transform&#34;:{&#34;m00&#34;:-140.61965942382812,&#34;m01&#34;:-2.4080077309918124e-06,&#34;m02&#34;:298.738769531250,&#34;m10&#34;:-5.9735743889177684e-06,&#34;m11&#34;:140.61964416503906,&#34;m12&#34;:87.752433776855469},&#34;opacity&#34;:1.0,&#34;blendMode&#34;:&#34;NORMAL&#34;,&#34;visible&#34;:true}"/>
<g clip-path="url(#paint5_angular_144_376_clip_path)" data-figma-skip-parse="true"><g transform="matrix(-4.45775e-09 0.0484147 0.0484147 6.59011e-09 109.831 158.04)"><foreignObject x="-1003.75" y="-1003.75" width="2007.5" height="2007.5"><div xmlns="http://www.w3.org/1999/xhtml" style="background:conic-gradient(from 90deg,rgba(72, 62, 62, 1) 0deg,rgba(196, 196, 196, 0) 360deg);height:100%;width:100%;opacity:1"></div></foreignObject></g></g><path d="M149.807 166.479C154.467 161.818 154.467 154.261 149.807 149.6L109.831 109.625L69.8554 149.6C65.1946 154.261 65.1946 161.818 69.8554 166.479L109.831 206.454L149.807 166.479Z" data-figma-gradient-fill="{&#34;type&#34;:&#34;GRADIENT_ANGULAR&#34;,&#34;stops&#34;:[{&#34;color&#34;:{&#34;r&#34;:0.28365385532379150,&#34;g&#34;:0.24410594999790192,&#34;b&#34;:0.24410594999790192,&#34;a&#34;:1.0},&#34;position&#34;:0.0},{&#34;color&#34;:{&#34;r&#34;:0.76862746477127075,&#34;g&#34;:0.76862746477127075,&#34;b&#34;:0.76862746477127075,&#34;a&#34;:0.0},&#34;position&#34;:1.0}],&#34;stopsVar&#34;:[{&#34;color&#34;:{&#34;r&#34;:0.28365385532379150,&#34;g&#34;:0.24410594999790192,&#34;b&#34;:0.24410594999790192,&#34;a&#34;:1.0},&#34;position&#34;:0.0},{&#34;color&#34;:{&#34;r&#34;:0.76862746477127075,&#34;g&#34;:0.76862746477127075,&#34;b&#34;:0.76862746477127075,&#34;a&#34;:0.0},&#34;position&#34;:1.0}],&#34;transform&#34;:{&#34;m00&#34;:-8.9154937086277641e-06,&#34;m01&#34;:96.82946777343750,&#34;m02&#34;:61.416267395019531,&#34;m10&#34;:96.829483032226562,&#34;m11&#34;:1.3180218957131729e-05,&#34;m12&#34;:109.62479400634766},&#34;opacity&#34;:1.0,&#34;blendMode&#34;:&#34;NORMAL&#34;,&#34;visible&#34;:true}"/>
<g clip-path="url(#paint6_angular_144_376_clip_path)" data-figma-skip-parse="true"><g transform="matrix(3.76689e-10 -0.0484147 -0.0484147 -2.50905e-09 206.66 158.04)"><foreignObject x="-1003.75" y="-1003.75" width="2007.5" height="2007.5"><div xmlns="http://www.w3.org/1999/xhtml" style="background:conic-gradient(from 90deg,rgba(72, 62, 62, 1) 0deg,rgba(196, 196, 196, 0) 360deg);height:100%;width:100%;opacity:1"></div></foreignObject></g></g><path d="M166.685 149.6C162.024 154.261 162.024 161.818 166.685 166.479L206.66 206.454L246.636 166.479C251.297 161.818 251.297 154.261 246.636 149.6L206.66 109.625L166.685 149.6Z" data-figma-gradient-fill="{&#34;type&#34;:&#34;GRADIENT_ANGULAR&#34;,&#34;stops&#34;:[{&#34;color&#34;:{&#34;r&#34;:0.28365385532379150,&#34;g&#34;:0.24410594999790192,&#34;b&#34;:0.24410594999790192,&#34;a&#34;:1.0},&#34;position&#34;:0.0},{&#34;color&#34;:{&#34;r&#34;:0.76862746477127075,&#34;g&#34;:0.76862746477127075,&#34;b&#34;:0.76862746477127075,&#34;a&#34;:0.0},&#34;position&#34;:1.0}],&#34;stopsVar&#34;:[{&#34;color&#34;:{&#34;r&#34;:0.28365385532379150,&#34;g&#34;:0.24410594999790192,&#34;b&#34;:0.24410594999790192,&#34;a&#34;:1.0},&#34;position&#34;:0.0},{&#34;color&#34;:{&#34;r&#34;:0.76862746477127075,&#34;g&#34;:0.76862746477127075,&#34;b&#34;:0.76862746477127075,&#34;a&#34;:0.0},&#34;position&#34;:1.0}],&#34;transform&#34;:{&#34;m00&#34;:7.5337868565839017e-07,&#34;m01&#34;:-96.82946777343750,&#34;m02&#34;:255.07519531250,&#34;m10&#34;:-96.829483032226562,&#34;m11&#34;:-5.0181056394649204e-06,&#34;m12&#34;:206.45429992675781},&#34;opacity&#34;:1.0,&#34;blendMode&#34;:&#34;NORMAL&#34;,&#34;visible&#34;:true}"/>
<g clip-path="url(#paint7_angular_144_376_clip_path)" data-figma-skip-parse="true"><g transform="matrix(-0.0484147 -8.5388e-09 -1.06712e-08 0.0484147 158.246 109.625)"><foreignObject x="-1003.75" y="-1003.75" width="2007.5" height="2007.5"><div xmlns="http://www.w3.org/1999/xhtml" style="background:conic-gradient(from 90deg,rgba(72, 62, 62, 1) 0deg,rgba(196, 196, 196, 0) 360deg);height:100%;width:100%;opacity:1"></div></foreignObject></g></g><path d="M149.807 149.6C154.467 154.261 162.024 154.261 166.685 149.6L206.66 109.625L166.685 69.6492C162.024 64.9884 154.467 64.9884 149.807 69.6492L109.831 109.625L149.807 149.6Z" data-figma-gradient-fill="{&#34;type&#34;:&#34;GRADIENT_ANGULAR&#34;,&#34;stops&#34;:[{&#34;color&#34;:{&#34;r&#34;:0.28365385532379150,&#34;g&#34;:0.24410594999790192,&#34;b&#34;:0.24410594999790192,&#34;a&#34;:1.0},&#34;position&#34;:0.0},{&#34;color&#34;:{&#34;r&#34;:0.76862746477127075,&#34;g&#34;:0.76862746477127075,&#34;b&#34;:0.76862746477127075,&#34;a&#34;:0.0},&#34;position&#34;:1.0}],&#34;stopsVar&#34;:[{&#34;color&#34;:{&#34;r&#34;:0.28365385532379150,&#34;g&#34;:0.24410594999790192,&#34;b&#34;:0.24410594999790192,&#34;a&#34;:1.0},&#34;position&#34;:0.0},{&#34;color&#34;:{&#34;r&#34;:0.76862746477127075,&#34;g&#34;:0.76862746477127075,&#34;b&#34;:0.76862746477127075,&#34;a&#34;:0.0},&#34;position&#34;:1.0}],&#34;transform&#34;:{&#34;m00&#34;:-96.829483032226562,&#34;m01&#34;:-2.1342333639040589e-05,&#34;m02&#34;:206.66049194335938,&#34;m10&#34;:-1.7077609300031327e-05,&#34;m11&#34;:96.82946777343750,&#34;m12&#34;:61.210094451904297},&#34;opacity&#34;:1.0,&#34;blendMode&#34;:&#34;NORMAL&#34;,&#34;visible&#34;:true}"/>
<g clip-path="url(#paint8_angular_144_376_clip_path)" data-figma-skip-parse="true"><g transform="matrix(0.0484147 4.45775e-09 6.59011e-09 -0.0484147 158.246 206.454)"><foreignObject x="-1003.75" y="-1003.75" width="2007.5" height="2007.5"><div xmlns="http://www.w3.org/1999/xhtml" style="background:conic-gradient(from 90deg,rgba(72, 62, 62, 1) 0deg,rgba(196, 196, 196, 0) 360deg);height:100%;width:100%;opacity:1"></div></foreignObject></g></g><path d="M166.685 166.479C162.024 161.818 154.467 161.818 149.807 166.479L109.831 206.454L149.807 246.43C154.467 251.091 162.024 251.091 166.685 246.43L206.66 206.454L166.685 166.479Z" data-figma-gradient-fill="{&#34;type&#34;:&#34;GRADIENT_ANGULAR&#34;,&#34;stops&#34;:[{&#34;color&#34;:{&#34;r&#34;:0.28365385532379150,&#34;g&#34;:0.24410594999790192,&#34;b&#34;:0.24410594999790192,&#34;a&#34;:1.0},&#34;position&#34;:0.0},{&#34;color&#34;:{&#34;r&#34;:0.76862746477127075,&#34;g&#34;:0.76862746477127075,&#34;b&#34;:0.76862746477127075,&#34;a&#34;:0.0},&#34;position&#34;:1.0}],&#34;stopsVar&#34;:[{&#34;color&#34;:{&#34;r&#34;:0.28365385532379150,&#34;g&#34;:0.24410594999790192,&#34;b&#34;:0.24410594999790192,&#34;a&#34;:1.0},&#34;position&#34;:0.0},{&#34;color&#34;:{&#34;r&#34;:0.76862746477127075,&#34;g&#34;:0.76862746477127075,&#34;b&#34;:0.76862746477127075,&#34;a&#34;:0.0},&#34;position&#34;:1.0}],&#34;transform&#34;:{&#34;m00&#34;:96.829483032226562,&#34;m01&#34;:1.3180218957131729e-05,&#34;m02&#34;:109.83097076416016,&#34;m10&#34;:8.9154937086277641e-06,&#34;m11&#34;:-96.82946777343750,&#34;m12&#34;:254.86901855468750},&#34;opacity&#34;:1.0,&#34;blendMode&#34;:&#34;NORMAL&#34;,&#34;visible&#34;:true}"/>
<rect x="230.084" y="154.918" width="106.358" height="106.358" rx="53.179" transform="rotate(135 230.084 154.918)" fill="url(#paint9_radial_144_376)"/>
<g clip-path="url(#paint10_angular_144_376_clip_path)" data-figma-skip-parse="true"><g transform="matrix(0.0343662 6.13164e-06 -6.118e-06 -0.0343662 123.879 158.034)"><foreignObject x="-1005.28" y="-1005.28" width="2010.56" height="2010.56"><div xmlns="http://www.w3.org/1999/xhtml" style="background:conic-gradient(from 90deg,rgba(72, 62, 62, 1) 0deg,rgba(196, 196, 196, 0) 360deg);height:100%;width:100%;opacity:1"></div></foreignObject></g></g><path d="M140.922 140.717C131.506 131.301 116.239 131.301 106.823 140.717L89.5126 158.028L106.836 175.351C116.252 184.767 131.518 184.767 140.934 175.351L158.245 158.04L140.922 140.717Z" data-figma-gradient-fill="{&#34;type&#34;:&#34;GRADIENT_ANGULAR&#34;,&#34;stops&#34;:[{&#34;color&#34;:{&#34;r&#34;:0.28365385532379150,&#34;g&#34;:0.24410594999790192,&#34;b&#34;:0.24410594999790192,&#34;a&#34;:1.0},&#34;position&#34;:0.0},{&#34;color&#34;:{&#34;r&#34;:0.76862746477127075,&#34;g&#34;:0.76862746477127075,&#34;b&#34;:0.76862746477127075,&#34;a&#34;:0.0},&#34;position&#34;:1.0}],&#34;stopsVar&#34;:[{&#34;color&#34;:{&#34;r&#34;:0.28365385532379150,&#34;g&#34;:0.24410594999790192,&#34;b&#34;:0.24410594999790192,&#34;a&#34;:1.0},&#34;position&#34;:0.0},{&#34;color&#34;:{&#34;r&#34;:0.76862746477127075,&#34;g&#34;:0.76862746477127075,&#34;b&#34;:0.76862746477127075,&#34;a&#34;:0.0},&#34;position&#34;:1.0}],&#34;transform&#34;:{&#34;m00&#34;:68.732376098632812,&#34;m01&#34;:-0.012235997244715691,&#34;m02&#34;:89.518699645996094,&#34;m10&#34;:0.012263271026313305,&#34;m11&#34;:-68.732360839843750,&#34;m12&#34;:192.39419555664062},&#34;opacity&#34;:1.0,&#34;blendMode&#34;:&#34;NORMAL&#34;,&#34;visible&#34;:true}"/>
<g clip-path="url(#paint11_angular_144_376_clip_path)" data-figma-skip-parse="true"><g transform="matrix(-0.0343662 -6.12874e-06 6.1209e-06 0.0343662 192.609 158.046)"><foreignObject x="-1005.28" y="-1005.28" width="2010.56" height="2010.56"><div xmlns="http://www.w3.org/1999/xhtml" style="background:conic-gradient(from 90deg,rgba(72, 62, 62, 1) 0deg,rgba(196, 196, 196, 0) 360deg);height:100%;width:100%;opacity:1"></div></foreignObject></g></g><path d="M175.566 175.363C184.982 184.779 200.249 184.779 209.665 175.363L226.976 158.053L209.653 140.729C200.237 131.313 184.97 131.313 175.554 140.729L158.243 158.04L175.566 175.363Z" data-figma-gradient-fill="{&#34;type&#34;:&#34;GRADIENT_ANGULAR&#34;,&#34;stops&#34;:[{&#34;color&#34;:{&#34;r&#34;:0.28365385532379150,&#34;g&#34;:0.24410594999790192,&#34;b&#34;:0.24410594999790192,&#34;a&#34;:1.0},&#34;position&#34;:0.0},{&#34;color&#34;:{&#34;r&#34;:0.76862746477127075,&#34;g&#34;:0.76862746477127075,&#34;b&#34;:0.76862746477127075,&#34;a&#34;:0.0},&#34;position&#34;:1.0}],&#34;stopsVar&#34;:[{&#34;color&#34;:{&#34;r&#34;:0.28365385532379150,&#34;g&#34;:0.24410594999790192,&#34;b&#34;:0.24410594999790192,&#34;a&#34;:1.0},&#34;position&#34;:0.0},{&#34;color&#34;:{&#34;r&#34;:0.76862746477127075,&#34;g&#34;:0.76862746477127075,&#34;b&#34;:0.76862746477127075,&#34;a&#34;:0.0},&#34;position&#34;:1.0}],&#34;transform&#34;:{&#34;m00&#34;:-68.732376098632812,&#34;m01&#34;:0.012241791002452374,&#34;m02&#34;:226.96954345703125,&#34;m10&#34;:-0.012257477268576622,&#34;m11&#34;:68.732360839843750,&#34;m12&#34;:123.68636322021484},&#34;opacity&#34;:1.0,&#34;blendMode&#34;:&#34;NORMAL&#34;,&#34;visible&#34;:true}"/>
<g clip-path="url(#paint12_angular_144_376_clip_path)" data-figma-skip-parse="true"><g transform="matrix(-6.13039e-06 0.0343662 0.0343662 -6.11385e-06 158.249 123.674)"><foreignObject x="-1005.28" y="-1005.28" width="2010.56" height="2010.56"><div xmlns="http://www.w3.org/1999/xhtml" style="background:conic-gradient(from 90deg,rgba(72, 62, 62, 1) 0deg,rgba(196, 196, 196, 0) 360deg);height:100%;width:100%;opacity:1"></div></foreignObject></g></g><path d="M175.566 140.717C184.982 131.301 184.982 116.035 175.566 106.619L158.256 89.3079L140.932 106.631C131.516 116.047 131.516 131.313 140.932 140.729L158.243 158.04L175.566 140.717Z" data-figma-gradient-fill="{&#34;type&#34;:&#34;GRADIENT_ANGULAR&#34;,&#34;stops&#34;:[{&#34;color&#34;:{&#34;r&#34;:0.28365385532379150,&#34;g&#34;:0.24410594999790192,&#34;b&#34;:0.24410594999790192,&#34;a&#34;:1.0},&#34;position&#34;:0.0},{&#34;color&#34;:{&#34;r&#34;:0.76862746477127075,&#34;g&#34;:0.76862746477127075,&#34;b&#34;:0.76862746477127075,&#34;a&#34;:0.0},&#34;position&#34;:1.0}],&#34;stopsVar&#34;:[{&#34;color&#34;:{&#34;r&#34;:0.28365385532379150,&#34;g&#34;:0.24410594999790192,&#34;b&#34;:0.24410594999790192,&#34;a&#34;:1.0},&#34;position&#34;:0.0},{&#34;color&#34;:{&#34;r&#34;:0.76862746477127075,&#34;g&#34;:0.76862746477127075,&#34;b&#34;:0.76862746477127075,&#34;a&#34;:0.0},&#34;position&#34;:1.0}],&#34;transform&#34;:{&#34;m00&#34;:-0.012260774150490761,&#34;m01&#34;:68.732368469238281,&#34;m02&#34;:123.88935852050781,&#34;m10&#34;:68.732383728027344,&#34;m11&#34;:-0.012227706611156464,&#34;m12&#34;:89.314002990722656},&#34;opacity&#34;:1.0,&#34;blendMode&#34;:&#34;NORMAL&#34;,&#34;visible&#34;:true}"/>
<g clip-path="url(#paint13_angular_144_376_clip_path)" data-figma-skip-parse="true"><g transform="matrix(6.12749e-06 -0.0343662 -0.0343662 6.11675e-06 158.245 192.4)"><foreignObject x="-1005.28" y="-1005.28" width="2010.56" height="2010.56"><div xmlns="http://www.w3.org/1999/xhtml" style="background:conic-gradient(from 90deg,rgba(72, 62, 62, 1) 0deg,rgba(196, 196, 196, 0) 360deg);height:100%;width:100%;opacity:1"></div></foreignObject></g></g><path d="M140.928 175.357C131.512 184.773 131.512 200.039 140.928 209.455L158.239 226.766L175.562 209.443C184.978 200.027 184.978 184.761 175.562 175.345L158.251 158.034L140.928 175.357Z" data-figma-gradient-fill="{&#34;type&#34;:&#34;GRADIENT_ANGULAR&#34;,&#34;stops&#34;:[{&#34;color&#34;:{&#34;r&#34;:0.28365385532379150,&#34;g&#34;:0.24410594999790192,&#34;b&#34;:0.24410594999790192,&#34;a&#34;:1.0},&#34;position&#34;:0.0},{&#34;color&#34;:{&#34;r&#34;:0.76862746477127075,&#34;g&#34;:0.76862746477127075,&#34;b&#34;:0.76862746477127075,&#34;a&#34;:0.0},&#34;position&#34;:1.0}],&#34;stopsVar&#34;:[{&#34;color&#34;:{&#34;r&#34;:0.28365385532379150,&#34;g&#34;:0.24410594999790192,&#34;b&#34;:0.24410594999790192,&#34;a&#34;:1.0},&#34;position&#34;:0.0},{&#34;color&#34;:{&#34;r&#34;:0.76862746477127075,&#34;g&#34;:0.76862746477127075,&#34;b&#34;:0.76862746477127075,&#34;a&#34;:0.0},&#34;position&#34;:1.0}],&#34;transform&#34;:{&#34;m00&#34;:0.012254980392754078,&#34;m01&#34;:-68.732368469238281,&#34;m02&#34;:192.60530090332031,&#34;m10&#34;:-68.732383728027344,&#34;m11&#34;:0.012233500368893147,&#34;m12&#34;:226.76020812988281},&#34;opacity&#34;:1.0,&#34;blendMode&#34;:&#34;NORMAL&#34;,&#34;visible&#34;:true}"/>
<g clip-path="url(#paint14_angular_144_376_clip_path)" data-figma-skip-parse="true"><g transform="matrix(-0.0168814 -2.94244e-06 2.94312e-06 0.0168814 141.364 158.037)"><foreignObject x="-1010.75" y="-1010.75" width="2021.5" height="2021.5"><div xmlns="http://www.w3.org/1999/xhtml" style="background:conic-gradient(from 90deg,rgba(151, 151, 151, 1) 0deg,rgba(196, 196, 196, 0) 360deg);height:100%;width:100%;opacity:1"></div></foreignObject></g></g><path d="M158.246 158.04L149.801 149.594C145.14 144.934 137.583 144.934 132.922 149.594L124.483 158.034L132.928 166.479C137.589 171.14 145.146 171.14 149.806 166.479L158.246 158.04Z" data-figma-gradient-fill="{&#34;type&#34;:&#34;GRADIENT_ANGULAR&#34;,&#34;stops&#34;:[{&#34;color&#34;:{&#34;r&#34;:0.59455120563507080,&#34;g&#34;:0.59455120563507080,&#34;b&#34;:0.59455120563507080,&#34;a&#34;:1.0},&#34;position&#34;:0.0},{&#34;color&#34;:{&#34;r&#34;:0.76862746477127075,&#34;g&#34;:0.76862746477127075,&#34;b&#34;:0.76862746477127075,&#34;a&#34;:0.0},&#34;position&#34;:1.0}],&#34;stopsVar&#34;:[{&#34;color&#34;:{&#34;r&#34;:0.59455120563507080,&#34;g&#34;:0.59455120563507080,&#34;b&#34;:0.59455120563507080,&#34;a&#34;:1.0},&#34;position&#34;:0.0},{&#34;color&#34;:{&#34;r&#34;:0.76862746477127075,&#34;g&#34;:0.76862746477127075,&#34;b&#34;:0.76862746477127075,&#34;a&#34;:0.0},&#34;position&#34;:1.0}],&#34;transform&#34;:{&#34;m00&#34;:-33.762744903564453,&#34;m01&#34;:0.0058862389996647835,&#34;m02&#34;:158.24278259277344,&#34;m10&#34;:-0.0058848871849477291,&#34;m11&#34;:33.762748718261719,&#34;m12&#34;:141.15817260742188},&#34;opacity&#34;:1.0,&#34;blendMode&#34;:&#34;NORMAL&#34;,&#34;visible&#34;:true}"/>
<g clip-path="url(#paint15_angular_144_376_clip_path)" data-figma-skip-parse="true"><g transform="matrix(0.0168814 2.94102e-06 -2.94454e-06 -0.0168814 175.127 158.042)"><foreignObject x="-1010.75" y="-1010.75" width="2021.5" height="2021.5"><div xmlns="http://www.w3.org/1999/xhtml" style="background:conic-gradient(from 90deg,rgba(151, 151, 151, 1) 0deg,rgba(196, 196, 196, 0) 360deg);height:100%;width:100%;opacity:1"></div></foreignObject></g></g><path d="M158.246 158.04L166.691 166.485C171.352 171.146 178.908 171.146 183.569 166.485L192.008 158.045L183.563 149.6C178.902 144.939 171.346 144.939 166.685 149.6L158.246 158.04Z" data-figma-gradient-fill="{&#34;type&#34;:&#34;GRADIENT_ANGULAR&#34;,&#34;stops&#34;:[{&#34;color&#34;:{&#34;r&#34;:0.59455120563507080,&#34;g&#34;:0.59455120563507080,&#34;b&#34;:0.59455120563507080,&#34;a&#34;:1.0},&#34;position&#34;:0.0},{&#34;color&#34;:{&#34;r&#34;:0.76862746477127075,&#34;g&#34;:0.76862746477127075,&#34;b&#34;:0.76862746477127075,&#34;a&#34;:0.0},&#34;position&#34;:1.0}],&#34;stopsVar&#34;:[{&#34;color&#34;:{&#34;r&#34;:0.59455120563507080,&#34;g&#34;:0.59455120563507080,&#34;b&#34;:0.59455120563507080,&#34;a&#34;:1.0},&#34;position&#34;:0.0},{&#34;color&#34;:{&#34;r&#34;:0.76862746477127075,&#34;g&#34;:0.76862746477127075,&#34;b&#34;:0.76862746477127075,&#34;a&#34;:0.0},&#34;position&#34;:1.0}],&#34;transform&#34;:{&#34;m00&#34;:33.762744903564453,&#34;m01&#34;:-0.0058890851214528084,&#34;m02&#34;:158.24867248535156,&#34;m10&#34;:0.0058820410631597042,&#34;m11&#34;:-33.762748718261719,&#34;m12&#34;:174.92092895507812},&#34;opacity&#34;:1.0,&#34;blendMode&#34;:&#34;NORMAL&#34;,&#34;visible&#34;:true}"/>
<g clip-path="url(#paint16_angular_144_376_clip_path)" data-figma-skip-parse="true"><g transform="matrix(2.94244e-06 -0.0168814 -0.0168814 2.94312e-06 158.249 141.158)"><foreignObject x="-1010.75" y="-1010.75" width="2021.5" height="2021.5"><div xmlns="http://www.w3.org/1999/xhtml" style="background:conic-gradient(from 90deg,rgba(151, 151, 151, 1) 0deg,rgba(196, 196, 196, 0) 360deg);height:100%;width:100%;opacity:1"></div></foreignObject></g></g><path d="M158.246 158.04L166.691 149.594C171.352 144.934 171.352 137.377 166.691 132.716L158.252 124.277L149.806 132.722C145.146 137.383 145.146 144.939 149.806 149.6L158.246 158.04Z" data-figma-gradient-fill="{&#34;type&#34;:&#34;GRADIENT_ANGULAR&#34;,&#34;stops&#34;:[{&#34;color&#34;:{&#34;r&#34;:0.59455120563507080,&#34;g&#34;:0.59455120563507080,&#34;b&#34;:0.59455120563507080,&#34;a&#34;:1.0},&#34;position&#34;:0.0},{&#34;color&#34;:{&#34;r&#34;:0.76862746477127075,&#34;g&#34;:0.76862746477127075,&#34;b&#34;:0.76862746477127075,&#34;a&#34;:0.0},&#34;position&#34;:1.0}],&#34;stopsVar&#34;:[{&#34;color&#34;:{&#34;r&#34;:0.59455120563507080,&#34;g&#34;:0.59455120563507080,&#34;b&#34;:0.59455120563507080,&#34;a&#34;:1.0},&#34;position&#34;:0.0},{&#34;color&#34;:{&#34;r&#34;:0.76862746477127075,&#34;g&#34;:0.76862746477127075,&#34;b&#34;:0.76862746477127075,&#34;a&#34;:0.0},&#34;position&#34;:1.0}],&#34;transform&#34;:{&#34;m00&#34;:0.0058848871849477291,&#34;m01&#34;:-33.762748718261719,&#34;m02&#34;:175.12710571289062,&#34;m10&#34;:-33.762744903564453,&#34;m11&#34;:0.0058862389996647835,&#34;m12&#34;:158.03660583496094},&#34;opacity&#34;:1.0,&#34;blendMode&#34;:&#34;NORMAL&#34;,&#34;visible&#34;:true}"/>
<g clip-path="url(#paint17_angular_144_376_clip_path)" data-figma-skip-parse="true"><g transform="matrix(-2.94102e-06 0.0168814 0.0168814 -2.94454e-06 158.243 174.921)"><foreignObject x="-1010.75" y="-1010.75" width="2021.5" height="2021.5"><div xmlns="http://www.w3.org/1999/xhtml" style="background:conic-gradient(from 90deg,rgba(151, 151, 151, 1) 0deg,rgba(196, 196, 196, 0) 360deg);height:100%;width:100%;opacity:1"></div></foreignObject></g></g><path d="M158.246 158.04L149.801 166.485C145.14 171.146 145.14 178.702 149.801 183.363L158.24 191.802L166.685 183.357C171.346 178.696 171.346 171.14 166.685 166.479L158.246 158.04Z" data-figma-gradient-fill="{&#34;type&#34;:&#34;GRADIENT_ANGULAR&#34;,&#34;stops&#34;:[{&#34;color&#34;:{&#34;r&#34;:0.59455120563507080,&#34;g&#34;:0.59455120563507080,&#34;b&#34;:0.59455120563507080,&#34;a&#34;:1.0},&#34;position&#34;:0.0},{&#34;color&#34;:{&#34;r&#34;:0.76862746477127075,&#34;g&#34;:0.76862746477127075,&#34;b&#34;:0.76862746477127075,&#34;a&#34;:0.0},&#34;position&#34;:1.0}],&#34;stopsVar&#34;:[{&#34;color&#34;:{&#34;r&#34;:0.59455120563507080,&#34;g&#34;:0.59455120563507080,&#34;b&#34;:0.59455120563507080,&#34;a&#34;:1.0},&#34;position&#34;:0.0},{&#34;color&#34;:{&#34;r&#34;:0.76862746477127075,&#34;g&#34;:0.76862746477127075,&#34;b&#34;:0.76862746477127075,&#34;a&#34;:0.0},&#34;position&#34;:1.0}],&#34;transform&#34;:{&#34;m00&#34;:-0.0058820410631597042,&#34;m01&#34;:33.762748718261719,&#34;m02&#34;:141.36434936523438,&#34;m10&#34;:33.762744903564453,&#34;m11&#34;:-0.0058890851214528084,&#34;m12&#34;:158.04249572753906},&#34;opacity&#34;:1.0,&#34;blendMode&#34;:&#34;NORMAL&#34;,&#34;visible&#34;:true}"/>
</g>
<defs>
<clipPath id="paint0_angular_144_376_clip_path"><path opacity="0.6" d="M87.8444 228.411L140.006 280.572C150.029 290.595 166.28 290.595 176.303 280.572L228.464 228.411L158.154 158.101L87.8444 228.411Z"/></clipPath><clipPath id="paint1_angular_144_376_clip_path"><path opacity="0.6" d="M228.548 87.6304L176.386 35.4693C166.363 25.446 150.112 25.446 140.089 35.4692L87.928 87.6304L158.238 157.94L228.548 87.6304Z"/></clipPath><clipPath id="paint2_angular_144_376_clip_path"><path opacity="0.6" d="M228.62 87.3091L176.459 35.148C166.435 25.1247 150.184 25.1247 140.161 35.148L88 87.3091L158.31 157.619L228.62 87.3091Z"/></clipPath><clipPath id="paint3_angular_144_376_clip_path"><path opacity="0.6" d="M87.8027 87.7588L35.6416 139.92C25.6184 149.943 25.6184 166.194 35.6416 176.217L87.8027 228.378L158.113 158.069L87.8027 87.7588Z"/></clipPath><clipPath id="paint4_angular_144_376_clip_path"><path opacity="0.6" d="M228.429 228.372L280.59 176.211C290.613 166.188 290.613 149.937 280.59 139.914L228.429 87.7524L158.119 158.062L228.429 228.372Z"/></clipPath><clipPath id="paint5_angular_144_376_clip_path"><path d="M149.807 166.479C154.467 161.818 154.467 154.261 149.807 149.6L109.831 109.625L69.8554 149.6C65.1946 154.261 65.1946 161.818 69.8554 166.479L109.831 206.454L149.807 166.479Z"/></clipPath><clipPath id="paint6_angular_144_376_clip_path"><path d="M166.685 149.6C162.024 154.261 162.024 161.818 166.685 166.479L206.66 206.454L246.636 166.479C251.297 161.818 251.297 154.261 246.636 149.6L206.66 109.625L166.685 149.6Z"/></clipPath><clipPath id="paint7_angular_144_376_clip_path"><path d="M149.807 149.6C154.467 154.261 162.024 154.261 166.685 149.6L206.66 109.625L166.685 69.6492C162.024 64.9884 154.467 64.9884 149.807 69.6492L109.831 109.625L149.807 149.6Z"/></clipPath><clipPath id="paint8_angular_144_376_clip_path"><path d="M166.685 166.479C162.024 161.818 154.467 161.818 149.807 166.479L109.831 206.454L149.807 246.43C154.467 251.091 162.024 251.091 166.685 246.43L206.66 206.454L166.685 166.479Z"/></clipPath><clipPath id="paint10_angular_144_376_clip_path"><path d="M140.922 140.717C131.506 131.301 116.239 131.301 106.823 140.717L89.5126 158.028L106.836 175.351C116.252 184.767 131.518 184.767 140.934 175.351L158.245 158.04L140.922 140.717Z"/></clipPath><clipPath id="paint11_angular_144_376_clip_path"><path d="M175.566 175.363C184.982 184.779 200.249 184.779 209.665 175.363L226.976 158.053L209.653 140.729C200.237 131.313 184.97 131.313 175.554 140.729L158.243 158.04L175.566 175.363Z"/></clipPath><clipPath id="paint12_angular_144_376_clip_path"><path d="M175.566 140.717C184.982 131.301 184.982 116.035 175.566 106.619L158.256 89.3079L140.932 106.631C131.516 116.047 131.516 131.313 140.932 140.729L158.243 158.04L175.566 140.717Z"/></clipPath><clipPath id="paint13_angular_144_376_clip_path"><path d="M140.928 175.357C131.512 184.773 131.512 200.039 140.928 209.455L158.239 226.766L175.562 209.443C184.978 200.027 184.978 184.761 175.562 175.345L158.251 158.034L140.928 175.357Z"/></clipPath><clipPath id="paint14_angular_144_376_clip_path"><path d="M158.246 158.04L149.801 149.594C145.14 144.934 137.583 144.934 132.922 149.594L124.483 158.034L132.928 166.479C137.589 171.14 145.146 171.14 149.806 166.479L158.246 158.04Z"/></clipPath><clipPath id="paint15_angular_144_376_clip_path"><path d="M158.246 158.04L166.691 166.485C171.352 171.146 178.908 171.146 183.569 166.485L192.008 158.045L183.563 149.6C178.902 144.939 171.346 144.939 166.685 149.6L158.246 158.04Z"/></clipPath><clipPath id="paint16_angular_144_376_clip_path"><path d="M158.246 158.04L166.691 149.594C171.352 144.934 171.352 137.377 166.691 132.716L158.252 124.277L149.806 132.722C145.146 137.383 145.146 144.939 149.806 149.6L158.246 158.04Z"/></clipPath><clipPath id="paint17_angular_144_376_clip_path"><path d="M158.246 158.04L149.801 166.485C145.14 171.146 145.14 178.702 149.801 183.363L158.24 191.802L166.685 183.357C171.346 178.696 171.346 171.14 166.685 166.479L158.246 158.04Z"/></clipPath><radialGradient id="paint9_radial_144_376" cx="0" cy="0" r="1" gradientUnits="userSpaceOnUse" gradientTransform="translate(283.263 208.097) rotate(135) scale(54.6548 54.6548)">
<stop/>
<stop offset="0.760906" stop-color="#7F7F7F" stop-opacity="0"/>
</radialGradient>
<clipPath id="clip0_144_376">
<rect width="227.19" height="220.168" fill="white" transform="translate(0 160.647) rotate(-45)"/>
</clipPath>
</defs>
</svg>
